<svg width="12" height="12" viewBox="0 0 12 12" fill="none" xmlns="http://www.w3.org/2000/svg">
<path d="M10.0049 1.45007H3.06553C2.96607 1.45007 2.87069 1.48958 2.80036 1.55991C2.73004 1.63023 2.69053 1.72562 2.69053 1.82507C2.69053 1.92453 2.73004 2.01991 2.80036 2.09024C2.87069 2.16056 2.96607 2.20007 3.06553 2.20007H9.26953L1.5749 9.89507C1.53771 9.92931 1.50782 9.97071 1.48703 10.0168C1.46624 10.0629 1.45499 10.1127 1.45394 10.1632C1.45289 10.2138 1.46207 10.264 1.48093 10.3109C1.4998 10.3578 1.52795 10.4004 1.56369 10.4362C1.59944 10.4719 1.64204 10.5001 1.68895 10.5189C1.73585 10.5378 1.78608 10.547 1.83663 10.5459C1.88717 10.5449 1.93698 10.5336 1.98306 10.5128C2.02914 10.492 2.07054 10.4621 2.10478 10.4249L9.79978 2.72995V8.93432C9.79978 9.03378 9.83929 9.12916 9.90961 9.19949C9.97994 9.26981 10.0753 9.30932 10.1748 9.30932C10.2742 9.30932 10.3696 9.26981 10.4399 9.19949C10.5103 9.12916 10.5498 9.03378 10.5498 8.93432V1.99532C10.5496 1.85084 10.4921 1.71233 10.39 1.61012C10.2879 1.50792 10.1494 1.45037 10.0049 1.45007Z" fill="black"/>
</svg>
